<svg width="446" height="160" viewBox="0 0 446 160" fill="none" xmlns="http://www.w3.org/2000/svg">
<path d="M53.125 50.2188L42.4688 58.5938H16.5625V97.9688C16.5625 99.3854 16.9479 100.667 17.7188 101.812C18.4271 102.854 19.25 103.531 20.1875 103.844V104H3.53125V103.844C5.94792 102.885 7.15625 100.917 7.15625 97.9375V58.5938C5.36458 58.5312 3.78125 59.0938 2.40625 60.2812C1.05208 61.4688 0.302083 62.9792 0.15625 64.8125H0V50.2188H53.125ZM49.0938 104H39.2188V77.1875C39.2188 75.4375 38.5208 74.5625 37.125 74.5625C35.75 74.5625 35.0625 75.4583 35.0625 77.25V100.906C35.0625 102.281 35.6562 103.229 36.8438 103.75V104H26.4375V61.1562C26.4375 59.5104 25.8333 58.6562 24.625 58.5938V58.3438L35.0625 50.2188V70.2188C36.7917 68.4688 38.9479 67.5938 41.5312 67.5938C43.2396 67.6146 44.6146 68.1354 45.6562 69.1562C46.7188 70.1771 47.25 71.6042 47.25 73.4375V101.094C47.25 102.406 47.8646 103.292 49.0938 103.75V104ZM71.4688 96.3125C71.4479 101.438 69.3646 104 65.2188 104H54.8438C51.9688 104 50.5312 102.594 50.5312 99.7812V72.0938C50.5312 70.8438 50.9792 69.8542 51.875 69.125C52.7708 68.3958 53.8542 68.0312 55.125 68.0312H67.2188C68.3229 68.0312 69.2396 68.3646 69.9688 69.0312C70.7604 69.7812 71.1562 70.7604 71.1562 71.9688V79.75C71.1562 81.4375 70.3542 82.9479 68.75 84.2812L61.7812 90.0625C60.1979 91.375 59.4167 92.6042 59.4375 93.75C59.4792 95.4792 60.7708 96.3438 63.3125 96.3438H65.6562C68.3854 96.3438 70.1354 95.3333 70.9062 93.3125L71.1875 93.2812C71.3958 94.0729 71.4896 95.0833 71.4688 96.3125ZM62.5625 77.0312V76.5312C62.5625 74.9271 61.9896 74.1458 60.8438 74.1875C59.6562 74.2292 59.0625 75.1042 59.0625 76.8125V82.4375L61.0625 80.75C62.0625 79.9375 62.5625 78.6979 62.5625 77.0312Z" fill="white"/>
<path d="M186.25 20.4375L164.938 37.1875H113.125V115.938C113.125 118.771 113.896 121.333 115.438 123.625C116.854 125.708 118.5 127.062 120.375 127.688V128H87.0625V127.688C91.8958 125.771 94.3125 121.833 94.3125 115.875V37.1875C90.7292 37.0625 87.5625 38.1875 84.8125 40.5625C82.1042 42.9375 80.6042 45.9583 80.3125 49.625H80V20.4375H186.25ZM150.188 47.125C150.188 49.7083 149.312 51.9167 147.562 53.75C145.854 55.5833 143.771 56.5 141.312 56.5C138.854 56.5 136.75 55.5833 135 53.75C133.25 51.9167 132.375 49.7083 132.375 47.125C132.375 44.5417 133.25 42.3333 135 40.5C136.75 38.6667 138.854 37.75 141.312 37.75C143.771 37.75 145.854 38.6667 147.562 40.5C149.312 42.3333 150.188 44.5417 150.188 47.125ZM153.188 128H132.5V76.125C132.5 72.7917 131.292 71.0833 128.875 71V70.3125L149.75 53.9375V123.25C149.75 125.542 150.896 126.875 153.188 127.25V128ZM203.438 128H183.688V74.375C183.688 70.875 182.292 69.125 179.5 69.125C176.75 69.125 175.375 70.9167 175.375 74.5V122.812C175.375 125.396 176.521 126.875 178.812 127.25V128H158.125V75.625C158.125 72.3333 156.917 70.625 154.5 70.5V69.9375L175.375 53.3125V60.4375C178.667 56.9792 183 55.25 188.375 55.25C195.958 55.2917 199.75 59.0208 199.75 66.4375V122.188C199.75 124.812 200.979 126.583 203.438 127.5V128ZM233.188 56.0625L230.062 69.625H226V123.25C226 125.542 227.146 126.875 229.438 127.25V128H208.75V42.3125C208.75 38.9792 207.542 37.2708 205.125 37.1875V36.6875L226 20.4375V56.0625H233.188ZM368.25 20.4375L346.938 37.1875H285.25C280.958 37.1875 278.812 38.9792 278.812 42.5625V53.875C278.812 55.875 279.5 57.5417 280.875 58.875L294.312 72.1875C296.521 74.3958 297.625 77.3958 297.625 81.1875V115.312C297.625 124.104 291.375 128.5 278.875 128.5C266.333 128.5 260.062 124.104 260.062 115.312V90.625H260.438C261.229 95.0417 262.021 98.0625 262.812 99.6875C264.604 103.479 267.458 105.375 271.375 105.375C276.417 105.375 278.938 103.271 278.938 99.0625V90.4375C278.938 88.2708 277.875 86.1458 275.75 84.0625L264.688 73.3125C262.271 70.9375 260.875 68.7083 260.5 66.625C260.208 65.1667 260.062 62.875 260.062 59.75V33.625C260.062 28.2917 261.917 24.625 265.625 22.625C268.333 21.1667 272.708 20.4375 278.75 20.4375H368.25ZM349.062 128H329.312V74.375C329.312 70.875 327.917 69.125 325.125 69.125C322.375 69.125 321 70.9167 321 74.5V121.812C321 124.562 322.188 126.458 324.562 127.5V128H303.75V42.3125C303.75 39.0208 302.542 37.3125 300.125 37.1875V36.6875L321 20.4375V60.4375C324.458 56.9375 328.771 55.1875 333.938 55.1875C337.354 55.2292 340.104 56.2708 342.188 58.3125C344.312 60.3542 345.375 63.2083 345.375 66.875V122.188C345.375 124.812 346.604 126.583 349.062 127.5V128ZM392.75 72.0625L392.688 112.625C392.688 120.25 390.333 125.146 385.625 127.312C383.333 128.354 378.854 128.854 372.188 128.812C365.229 128.771 360.729 128.333 358.688 127.5C353.896 125.417 351.5 120.562 351.5 112.938L351.438 72.125C351.438 65 353.625 60.1458 358 57.5625C360.958 55.8125 365.688 54.9375 372.188 54.9375C379.062 54.9375 383.833 55.7083 386.5 57.25C390.667 59.6667 392.75 64.6042 392.75 72.0625ZM375.312 107.062V78.9375C375.312 75.9375 374.292 74.3958 372.25 74.3125C370 74.2292 368.875 75.7708 368.875 78.9375V107.062C368.875 109.271 369.979 110.375 372.188 110.375C374.271 110.375 375.312 109.271 375.312 107.062ZM440.438 113.75C440.438 118.25 439.167 121.896 436.625 124.688C434.083 127.438 430.854 128.896 426.938 129.062C422.479 129.271 419.125 127.583 416.875 124V139.875L396.188 157.188V156.062C398.479 153.854 399.625 151.062 399.625 147.688V75.5625C399.625 72.2292 398.417 70.5208 396 70.4375V69.875L416.875 53.4375V60.5625C419.833 56.9792 424 55.1875 429.375 55.1875C436.75 55.1875 440.438 60.0208 440.438 69.6875V113.75ZM422.438 106.125V74.75C422.438 73.5417 421.833 72.9375 420.625 72.9375H419.812C418.604 72.9375 418 73.5417 418 74.75V106.125C418 107.333 418.604 107.938 419.812 107.938H420.625C421.833 107.938 422.438 107.333 422.438 106.125Z" fill="white"/>
<line y1="111.5" x2="74" y2="111.5" stroke="#FF0000"/>
<line x1="52" y1="55.5" x2="74" y2="55.5" stroke="#FF0000"/>
</svg>
