<svg width="442" height="160" viewBox="0 0 442 160" fill="none" xmlns="http://www.w3.org/2000/svg">
<path d="M113.062 56.0625L109.938 69.625H105.875V123.25C105.875 125.542 107.021 126.875 109.312 127.25V128H88.625V42.3125C88.625 38.9792 87.4167 37.2708 85 37.1875V36.6875L105.875 20.4375V56.0625H113.062ZM136.093 47.125C136.093 49.7083 135.218 51.9167 133.468 53.75C131.759 55.5833 129.676 56.5 127.218 56.5C124.759 56.5 122.655 55.5833 120.905 53.75C119.155 51.9167 118.28 49.7083 118.28 47.125C118.28 44.5417 119.155 42.3333 120.905 40.5C122.655 38.6667 124.759 37.75 127.218 37.75C129.676 37.75 131.759 38.6667 133.468 40.5C135.218 42.3333 136.093 44.5417 136.093 47.125ZM139.093 128H118.405V76.125C118.405 72.7917 117.197 71.0833 114.78 71V70.3125L135.655 53.9375V123.25C135.655 125.542 136.801 126.875 139.093 127.25V128ZM190.623 128H170.873V74.375C170.873 70.875 169.477 69.125 166.685 69.125C163.935 69.125 162.56 70.9167 162.56 74.5V122.812C162.56 125.396 163.706 126.875 165.998 127.25V128H145.31V75.625C145.31 72.3333 144.102 70.625 141.685 70.5V69.9375L162.56 53.3125V60.4375C165.852 56.9792 170.185 55.25 175.56 55.25C183.143 55.2917 186.935 59.0208 186.935 66.4375V122.188C186.935 124.812 188.164 126.583 190.623 127.5V128ZM221.652 56.0625L218.527 69.625H214.465V123.25C214.465 125.542 215.611 126.875 217.902 127.25V128H197.215V42.3125C197.215 38.9792 196.007 37.2708 193.59 37.1875V36.6875L214.465 20.4375V56.0625H221.652ZM288.837 116.25C288.837 120.5 287.421 123.625 284.587 125.625C281.379 127.875 276.192 129 269.025 129C263.233 129 258.962 128.354 256.212 127.062C251.879 125.104 249.712 121.333 249.712 115.75V98.6875L250.337 98.75C250.546 101.833 251.671 104.625 253.712 107.125C256.004 109.917 258.733 111.375 261.9 111.5C264.608 111.625 266.754 111.292 268.337 110.5C270.212 109.542 271.129 107.958 271.087 105.75C271.004 103.667 270.087 101.875 268.337 100.375C268.046 100.167 266.275 99.0625 263.025 97.0625C258.15 94.1042 255.421 92.375 254.837 91.875C251.379 89.0417 249.65 85.8333 249.65 82.25V69C249.65 59.625 256.4 54.8958 269.9 54.8125C282.525 54.7708 288.837 59.25 288.837 68.25V80.25H288.212C287.004 75.0833 283.317 72.375 277.15 72.125C271.9 71.9167 269.254 73.8542 269.212 77.9375C269.212 80.2292 270.9 82.3958 274.275 84.4375C280.108 87.9792 283.254 89.9583 283.712 90.375C287.129 93.25 288.837 96.875 288.837 101.25V116.25ZM342.242 128H322.492V74.375C322.492 70.875 321.097 69.125 318.305 69.125C315.555 69.125 314.18 70.9167 314.18 74.5V121.812C314.18 124.562 315.367 126.458 317.742 127.5V128H296.93V42.3125C296.93 39.0208 295.722 37.3125 293.305 37.1875V36.6875L314.18 20.4375V60.4375C317.638 56.9375 321.951 55.1875 327.117 55.1875C330.534 55.2292 333.284 56.2708 335.367 58.3125C337.492 60.3542 338.555 63.2083 338.555 66.875V122.188C338.555 124.812 339.784 126.583 342.242 127.5V128ZM387.21 72.0625L387.147 112.625C387.147 120.25 384.793 125.146 380.085 127.312C377.793 128.354 373.314 128.854 366.647 128.812C359.689 128.771 355.189 128.333 353.147 127.5C348.356 125.417 345.96 120.562 345.96 112.938L345.897 72.125C345.897 65 348.085 60.1458 352.46 57.5625C355.418 55.8125 360.147 54.9375 366.647 54.9375C373.522 54.9375 378.293 55.7083 380.96 57.25C385.127 59.6667 387.21 64.6042 387.21 72.0625ZM369.772 107.062V78.9375C369.772 75.9375 368.752 74.3958 366.71 74.3125C364.46 74.2292 363.335 75.7708 363.335 78.9375V107.062C363.335 109.271 364.439 110.375 366.647 110.375C368.731 110.375 369.772 109.271 369.772 107.062ZM436.177 113.75C436.177 118.25 434.907 121.896 432.365 124.688C429.823 127.438 426.594 128.896 422.677 129.062C418.219 129.271 414.865 127.583 412.615 124V139.875L391.927 157.188V156.062C394.219 153.854 395.365 151.062 395.365 147.688V75.5625C395.365 72.2292 394.157 70.5208 391.74 70.4375V69.875L412.615 53.4375V60.5625C415.573 56.9792 419.74 55.1875 425.115 55.1875C432.49 55.1875 436.177 60.0208 436.177 69.6875V113.75ZM418.177 106.125V74.75C418.177 73.5417 417.573 72.9375 416.365 72.9375H415.552C414.344 72.9375 413.74 73.5417 413.74 74.75V106.125C413.74 107.333 414.344 107.938 415.552 107.938H416.365C417.573 107.938 418.177 107.333 418.177 106.125Z" fill="white"/>
<path d="M32 60.002L65 60" stroke="#FF0000" stroke-width="4"/>
<path d="M0 112.002L65 111.998" stroke="#FF0000" stroke-width="4"/>
<path d="M14.0312 68.0312L12.4688 74.8125H10.4375V101.625C10.4375 102.771 11.0104 103.438 12.1562 103.625V104H1.8125V61.1562C1.8125 59.4896 1.20833 58.6354 0 58.5938V58.3438L10.4375 50.2188V68.0312H14.0312ZM39.3588 104H29.4838V77.1875C29.4838 75.4375 28.7858 74.5625 27.39 74.5625C26.015 74.5625 25.3275 75.4583 25.3275 77.25V100.906C25.3275 102.281 25.9213 103.229 27.1088 103.75V104H16.7025V61.1562C16.7025 59.5104 16.0983 58.6562 14.89 58.5938V58.3438L25.3275 50.2188V70.2188C27.0567 68.4688 29.2129 67.5938 31.7963 67.5938C33.5046 67.6146 34.8796 68.1354 35.9213 69.1562C36.9838 70.1771 37.515 71.6042 37.515 73.4375V101.094C37.515 102.406 38.1296 103.292 39.3588 103.75V104ZM62.3737 96.3125C62.3529 101.438 60.2696 104 56.1237 104H45.7487C42.8737 104 41.4362 102.594 41.4362 99.7812V72.0938C41.4362 70.8438 41.8842 69.8542 42.78 69.125C43.6758 68.3958 44.7592 68.0312 46.03 68.0312H58.1237C59.2279 68.0312 60.1446 68.3646 60.8737 69.0312C61.6654 69.7812 62.0612 70.7604 62.0612 71.9688V79.75C62.0612 81.4375 61.2592 82.9479 59.655 84.2812L52.6862 90.0625C51.1029 91.375 50.3217 92.6042 50.3425 93.75C50.3842 95.4792 51.6758 96.3438 54.2175 96.3438H56.5612C59.2904 96.3438 61.0404 95.3333 61.8112 93.3125L62.0925 93.2812C62.3008 94.0729 62.3946 95.0833 62.3737 96.3125ZM53.4675 77.0312V76.5312C53.4675 74.9271 52.8946 74.1458 51.7487 74.1875C50.5612 74.2292 49.9675 75.1042 49.9675 76.8125V82.4375L51.9675 80.75C52.9675 79.9375 53.4675 78.6979 53.4675 77.0312Z" fill="white"/>
</svg>
