<svg width="252" height="176" viewBox="0 0 252 176" fill="none" xmlns="http://www.w3.org/2000/svg">
<g clip-path="url(#clip0_201_2074)">
<path d="M155.25 58.75C156.112 58.75 156.939 59.0924 157.548 59.7019C158.158 60.3114 158.5 61.138 158.5 62V84.75H152V65.25H100V110.75H119.5V117.25H96.75C95.888 117.25 95.0614 116.908 94.4519 116.298C93.8424 115.689 93.5 114.862 93.5 114V62C93.5 61.138 93.8424 60.3114 94.4519 59.7019C95.0614 59.0924 95.888 58.75 96.75 58.75H155.25ZM155.25 91.25C156.112 91.25 156.939 91.5924 157.548 92.2019C158.158 92.8114 158.5 93.638 158.5 94.5V114C158.5 114.862 158.158 115.689 157.548 116.298C156.939 116.908 156.112 117.25 155.25 117.25H129.25C128.388 117.25 127.561 116.908 126.952 116.298C126.342 115.689 126 114.862 126 114V94.5C126 93.638 126.342 92.8114 126.952 92.2019C127.561 91.5924 128.388 91.25 129.25 91.25H155.25Z" fill="black"/>
</g>
<defs>
<clipPath id="clip0_201_2074">
<rect width="78" height="78" fill="white" transform="translate(87 49)"/>
</clipPath>
</defs>
</svg>
